<?xml version="1.0" encoding="UTF-8" standalone="no"?>
<!-- Created with Inkscape (http://www.inkscape.org/) -->

<svg
   width="1024"
   height="1024"
   viewBox="0 0 270.93334 270.93334"
   version="1.1"
   id="svg1538"
   inkscape:version="1.1.2 (b8e25be833, 2022-02-05)"
   sodipodi:docname="splash.svg"
   xmlns:inkscape="http://www.inkscape.org/namespaces/inkscape"
   xmlns:sodipodi="http://sodipodi.sourceforge.net/DTD/sodipodi-0.dtd"
   xmlns="http://www.w3.org/2000/svg"
   xmlns:svg="http://www.w3.org/2000/svg">
  <sodipodi:namedview
     id="namedview1540"
     pagecolor="#505050"
     bordercolor="#eeeeee"
     borderopacity="1"
     inkscape:pageshadow="0"
     inkscape:pageopacity="0"
     inkscape:pagecheckerboard="0"
     inkscape:document-units="mm"
     showgrid="false"
     units="px"
     width="108px"
     inkscape:zoom="0.38752104"
     inkscape:cx="-411.59056"
     inkscape:cy="910.91828"
     inkscape:window-width="1366"
     inkscape:window-height="705"
     inkscape:window-x="-8"
     inkscape:window-y="-8"
     inkscape:window-maximized="1"
     inkscape:current-layer="layer1" />
  <defs
     id="defs1535" />
  <g
     inkscape:label="Layer 1"
     inkscape:groupmode="layer"
     id="layer1">
    <g
       id="g1167"
       transform="matrix(0.38148371,0,0,0.38148371,-1440.5339,969.91497)"
       style="fill:#ffcc30;fill-opacity:1;stroke-width:2.62134"
       inkscape:export-filename="C:\Users\nightwalker\developer\Projects\diptrac\assets\splash.png"
       inkscape:export-xdpi="96"
       inkscape:export-ydpi="96">
      <path
         id="path1149"
         style="opacity:1;fill:#ffcc30;fill-opacity:1;stroke:none;stroke-width:3.46781;stroke-linecap:round;stroke-miterlimit:4;stroke-dasharray:none;stroke-opacity:0.929412"
         d="m 4131.2395,-2542.4803 v 5e-4 a 198.4375,198.43743 0 0 0 -18.3095,0.8464 198.4375,198.43743 0 0 0 -18.1535,2.5322 198.4375,198.43743 0 0 0 -17.8422,4.1966 198.4375,198.43743 0 0 0 -17.3789,5.825 198.4375,198.43743 0 0 0 -16.7675,7.4032 198.4375,198.43743 0 0 0 -16.0123,8.9193 198.4375,198.43743 0 0 0 -15.1217,10.358 198.4375,198.43743 0 0 0 -14.101,11.7099 198.4375,198.43743 0 0 0 -12.9609,12.9605 198.4375,198.43743 0 0 0 -11.7094,14.1008 198.4375,198.43743 0 0 0 -10.3584,15.1216 198.4375,198.43743 0 0 0 -8.9188,16.0129 198.4375,198.43743 0 0 0 -7.4039,16.767 198.4375,198.43743 0 0 0 -5.8242,17.3788 198.4375,198.43743 0 0 0 -4.1969,17.8423 198.4375,198.43743 0 0 0 -2.532,18.1534 198.4375,198.43743 0 0 0 -0.8464,18.3095 l 79.3475,158.6951 119.0894,238.1791 119.0893,-238.1791 79.3488,-158.6962 a 198.4375,198.43743 0 0 0 -0.098,-6.2327 198.4375,198.43743 0 0 0 -0.2937,-6.227 198.4375,198.43743 0 0 0 -0.4892,-6.2146 198.4375,198.43743 0 0 0 -0.6837,-6.1965 198.4375,198.43743 0 0 0 -0.8787,-6.1717 198.4375,198.43743 0 0 0 -1.0715,-6.1407 198.4375,198.43743 0 0 0 -1.2642,-6.1046 198.4375,198.43743 0 0 0 -1.4552,-6.0616 198.4375,198.43743 0 0 0 -1.6452,-6.0125 198.4375,198.43743 0 0 0 -1.833,-5.9584 198.4375,198.43743 0 0 0 -2.0191,-5.8978 198.4375,198.43743 0 0 0 -2.2034,-5.8317 198.4375,198.43743 0 0 0 -2.386,-5.7593 198.4375,198.43743 0 0 0 -2.5651,-5.6813 198.4375,198.43743 0 0 0 -2.7425,-5.5981 198.4375,198.43743 0 0 0 -2.9173,-5.5092 198.4375,198.43743 0 0 0 -3.0882,-5.4152 198.4375,198.43743 0 0 0 -3.257,-5.3149 198.4375,198.43743 0 0 0 -3.4226,-5.2106 198.4375,198.43743 0 0 0 -3.5846,-5.0999 198.4375,198.43743 0 0 0 -3.7431,-4.9852 198.4375,198.43743 0 0 0 -3.8973,-4.8653 198.4375,198.43743 0 0 0 -4.0489,-4.7402 198.4375,198.43743 0 0 0 -4.1952,-4.6106 198.4375,198.43743 0 0 0 -4.3381,-4.4767 198.4375,198.43743 0 0 0 -4.4768,-4.3383 198.4375,198.43743 0 0 0 -4.6112,-4.1951 198.4375,198.43743 0 0 0 -4.7397,-4.0488 198.4375,198.43743 0 0 0 -4.8652,-3.8975 198.4375,198.43743 0 0 0 -4.9852,-3.7429 198.4375,198.43743 0 0 0 -5.1001,-3.5848 198.4375,198.43743 0 0 0 -5.2105,-3.4225 198.4375,198.43743 0 0 0 -5.3149,-3.2572 198.4375,198.43743 0 0 0 -5.4153,-3.0887 198.4375,198.43743 0 0 0 -5.5091,-2.9166 198.4375,198.43743 0 0 0 -5.5981,-2.7425 198.4375,198.43743 0 0 0 -5.6819,-2.5657 198.4375,198.43743 0 0 0 -5.7587,-2.3854 198.4375,198.43743 0 0 0 -5.8316,-2.2035 198.4375,198.43743 0 0 0 -5.8979,-2.0195 198.4375,198.43743 0 0 0 -5.9584,-1.833 198.4375,198.43743 0 0 0 -6.0126,-1.6448 198.4375,198.43743 0 0 0 -6.0616,-1.4552 198.4375,198.43743 0 0 0 -6.1045,-1.264 198.4375,198.43743 0 0 0 -6.1413,-1.0718 198.4375,198.43743 0 0 0 -6.1711,-0.8785 198.4375,198.43743 0 0 0 -6.1965,-0.6842 198.4375,198.43743 0 0 0 -6.2146,-0.4889 198.4375,198.43743 0 0 0 -6.2272,-0.2935 198.4375,198.43743 0 0 0 -6.2325,-0.098 z m -19.8443,66.1463 h 13.2808 l -0.052,13.5019 c -1.0285,0.029 -2.0566,0.073 -3.084,0.1282 a 119.06251,119.06245 0 0 1 3.0834,-0.1276 v 105.5599 13.2292 118.789 13.2421 a 132.29168,132.29162 0 0 1 -3.7647,-0.1478 132.29168,132.29162 0 0 1 -9.4644,-1.1198 132.29168,132.29162 0 0 1 -0.8523,-0.1008 132.29168,132.29162 0 0 1 -10.1869,-2.0262 132.29168,132.29162 0 0 1 -9.9979,-2.82 132.29168,132.29162 0 0 1 -9.7451,-3.5951 132.29168,132.29162 0 0 1 -9.4334,-4.3486 132.29168,132.29162 0 0 1 -9.0631,-5.0757 132.29168,132.29162 0 0 1 -8.6368,-5.7712 132.29168,132.29162 0 0 1 -8.1576,-6.4306 132.29168,132.29162 0 0 1 -7.6279,-7.0513 132.29168,132.29162 0 0 1 -7.0507,-7.6274 132.29168,132.29162 0 0 1 -6.4312,-8.1577 132.29168,132.29162 0 0 1 -5.7705,-8.6366 132.29168,132.29162 0 0 1 -5.0758,-9.0636 132.29168,132.29162 0 0 1 -4.3482,-9.433 132.29168,132.29162 0 0 1 -3.5959,-9.7456 132.29168,132.29162 0 0 1 -2.8197,-9.9974 132.29168,132.29162 0 0 1 -2.0262,-10.1879 132.29168,132.29162 0 0 1 -1.221,-10.3156 132.29168,132.29162 0 0 1 -0.4077,-10.3792 132.29168,132.29162 0 0 1 5e-4,-0.013 v 0.013 h 13.2286 99.2188 v -13.2287 -104.158 a 119.06251,119.06245 0 0 1 0.2466,-0.052 119.06251,119.06245 0 0 1 4.8704,-0.7096 c -1.628,0.2029 -3.2515,0.439 -4.8699,0.709 -0.082,0.017 -0.1646,0.035 -0.2466,0.052 z m 5.1165,14.1432 a 119.06251,119.06245 0 0 1 4.89,-0.5069 c -1.6332,0.1353 -3.2639,0.3043 -4.89,0.5069 z m 21.3413,-14.1432 h 13.2292 98.3887 13.3144 0.7453 v 13.2291 h -5e-4 -13.2292 -99.2187 v 1.6753 5e-4 104.157 h -13.2292 v -105.5594 z m 3.2655,13.6383 a 119.06251,119.06245 0 0 1 4.8673,0.5049 c -1.6185,-0.2017 -3.2414,-0.3698 -4.8673,-0.5049 z m 4.8673,0.5049 a 119.06251,119.06245 0 0 1 4.8416,0.7049 c -1.6092,-0.2681 -3.2232,-0.5032 -4.8416,-0.7049 z m -8.1127,104.9192 h 13.2292 v 13.2292 117.3865 a 119.06251,119.06245 0 0 1 -0.2466,0.052 119.06251,119.06245 0 0 1 -4.685,0.6826 119.06251,119.06245 0 0 0 4.685,-0.6821 119.06251,119.06245 0 0 0 0.2466,-0.052 119.06251,119.06245 0 0 0 9.3855,-1.9678 119.06251,119.06245 0 0 0 9.4303,-2.8081 119.06251,119.06245 0 0 0 9.1676,-3.5771 119.06251,119.06245 0 0 0 8.8408,-4.3217 119.06251,119.06245 0 0 0 8.4531,-5.0374 119.06251,119.06245 0 0 0 8.0095,-5.718 119.06251,119.06245 0 0 0 7.5083,-6.3598 119.06251,119.06245 0 0 0 6.9583,-6.9587 119.06251,119.06245 0 0 0 6.3598,-7.5091 119.06251,119.06245 0 0 0 5.7182,-8.0083 119.06251,119.06245 0 0 0 5.0374,-8.4538 119.06251,119.06245 0 0 0 4.3217,-8.8408 119.06251,119.06245 0 0 0 3.5769,-9.1669 119.06251,119.06245 0 0 0 2.8085,-9.4314 119.06251,119.06245 0 0 0 2.0191,-9.6309 119.06251,119.06245 0 0 0 1.2171,-9.7653 119.06251,119.06245 0 0 0 0.4066,-9.8319 h 13.2292 a 132.29168,132.29162 0 0 1 -0.4077,10.3797 132.29168,132.29162 0 0 1 -1.2206,10.3151 132.29168,132.29162 0 0 1 -2.0261,10.1879 132.29168,132.29162 0 0 1 -2.8208,9.9974 132.29168,132.29162 0 0 1 -3.5949,9.7456 132.29168,132.29162 0 0 1 -4.3486,9.4335 132.29168,132.29162 0 0 1 -5.0758,9.0631 132.29168,132.29162 0 0 1 -5.7706,8.6366 132.29168,132.29162 0 0 1 -6.4312,8.1577 132.29168,132.29162 0 0 1 -7.0511,7.6274 132.29168,132.29162 0 0 1 -7.6269,7.0513 132.29168,132.29162 0 0 1 -8.1577,6.4306 132.29168,132.29162 0 0 1 -8.6373,5.7712 132.29168,132.29162 0 0 1 -9.0635,5.0757 132.29168,132.29162 0 0 1 -9.433,4.3486 132.29168,132.29162 0 0 1 -9.7456,3.5951 132.29168,132.29162 0 0 1 -9.9973,2.82 132.29168,132.29162 0 0 1 -10.1881,2.0262 132.29168,132.29162 0 0 1 -0.8511,0.1008 132.29168,132.29162 0 0 1 -9.4639,1.1203 132.29168,132.29162 0 0 1 -3.7653,0.1478 v -13.2421 a 119.06251,119.06245 0 0 0 3.2179,-0.1333 119.06251,119.06245 0 0 0 4.7077,-0.4883 119.06251,119.06245 0 0 1 -4.7077,0.4878 119.06251,119.06245 0 0 1 -3.2179,0.1333 v -118.789 z m -124.9185,26.4583 a 119.06251,119.06245 0 0 0 0.8652,6.3681 119.06251,119.06245 0 0 0 2.0201,9.6309 119.06251,119.06245 0 0 0 2.8075,9.4314 119.06251,119.06245 0 0 0 3.5774,9.1674 119.06251,119.06245 0 0 0 4.3217,8.8408 119.06251,119.06245 0 0 0 5.0369,8.4533 119.06251,119.06245 0 0 0 5.7181,8.0088 119.06251,119.06245 0 0 0 6.3598,7.5091 119.06251,119.06245 0 0 0 6.9594,6.9582 119.06251,119.06245 0 0 0 7.5086,6.3598 119.06251,119.06245 0 0 0 8.0087,5.7185 119.06251,119.06245 0 0 0 8.4531,5.0369 119.06251,119.06245 0 0 0 8.8408,4.3223 119.06251,119.06245 0 0 0 9.1676,3.577 119.06251,119.06245 0 0 0 9.4313,2.8076 119.06251,119.06245 0 0 0 9.384,1.9678 v -5e-4 -104.1574 z" />
      <g
         aria-label="diptrac"
         id="g1165"
         style="font-weight:bold;font-size:200.89px;line-height:1.25;font-family:'Champagne &amp; Limousines';-inkscape-font-specification:'Champagne &amp; Limousines, Bold';fill:#ffcc30;fill-opacity:1;stroke-width:1.04035"
         transform="matrix(0.66666588,0,0,0.66666588,1377.0831,-649.70666)">
        <path
           d="m 3934.126,-1805.0419 h -17.7544 v -15.6945 q -10.4957,18.0487 -31.9776,18.0487 -21.2857,0 -36.0974,-14.7136 -14.7137,-14.8117 -14.7137,-34.9203 0,-20.3048 14.7137,-35.0185 14.8117,-14.7136 36.0974,-14.7136 21.4819,0 31.9776,17.8525 v -61.9934 h 17.7544 z m -17.7544,-40.2172 v -14.3213 q -1.8637,-9.711 -8.9263,-16.7735 -9.9071,-10.0053 -23.0513,-10.0053 -13.2423,0 -22.9533,9.8091 -9.711,9.8091 -9.711,24.2285 0,14.3212 9.711,24.0322 9.711,9.711 22.9533,9.711 13.1442,0 23.0513,-9.9072 7.0626,-7.0625 8.9263,-16.7735 z"
           id="path1151"
           style="fill:#ffcc30;fill-opacity:1;stroke-width:1.04035" />
        <path
           d="m 3971.9891,-1894.6969 v 89.655 h -17.6564 v -89.655 z m -8.7301,-29.0349 q 5.395,0 8.9263,3.5313 3.6293,3.4332 3.6293,7.7492 0,4.5122 -3.6293,8.0434 -3.5313,3.4332 -8.9263,3.4332 -5.5912,0 -9.1224,-3.4332 -3.5313,-3.5312 -3.5313,-8.0434 0,-4.316 3.5313,-7.7492 3.5312,-3.5313 9.1224,-3.5313 z"
           id="path1153"
           style="fill:#ffcc30;fill-opacity:1;stroke-width:1.04035" />
        <path
           d="m 3992.5882,-1894.6969 h 17.7544 v 10.2996 q 10.4957,-17.5583 31.8795,-17.5583 21.3838,0 36.0974,14.7136 14.7137,14.6156 14.7137,34.9204 0,20.1086 -14.7137,34.9203 -14.7136,14.7136 -36.0974,14.7136 -21.3838,0 -31.8795,-17.7544 v 46.5931 h -17.7544 z m 17.7544,34.8223 v 15.1059 q 1.7656,9.5149 9.1224,16.7736 9.6129,9.5148 22.7571,9.5148 13.1442,0 22.8552,-9.711 9.8091,-9.8091 9.8091,-24.1303 0,-14.4194 -9.8091,-24.2285 -9.711,-9.8091 -22.8552,-9.8091 -13.1442,0 -23.1494,10.0053 -6.9645,6.9645 -8.7301,16.4793 z"
           id="path1155"
           style="fill:#ffcc30;fill-opacity:1;stroke-width:1.04035" />
        <path
           d="m 4118.733,-1894.6969 v -34.8222 h 17.6563 v 34.8222 h 16.6754 v 15.3022 h -16.6754 v 74.3528 h -17.6563 v -74.3528 h -16.6755 v -15.3022 z"
           id="path1157"
           style="fill:#ffcc30;fill-opacity:1;stroke-width:1.04035" />
        <path
           d="m 4207.0147,-1881.3565 q -12.1633,1.8637 -18.8334,9.711 -6.6702,7.7491 -6.6702,19.52 v 47.0836 h -17.7545 v -89.655 h 17.7545 v 12.7518 q 3.9236,-10.4957 16.8716,-14.6155 z"
           id="path1159"
           style="fill:#ffcc30;fill-opacity:1;stroke-width:1.04035" />
        <path
           d="m 4319.9172,-1805.0419 h -17.7544 v -15.6945 q -10.4957,18.0487 -31.9776,18.0487 -21.2857,0 -36.0974,-14.7136 -14.7137,-14.8117 -14.7137,-34.9203 0,-20.3048 14.7137,-35.0185 14.8117,-14.7136 36.0974,-14.7136 21.4819,0 31.9776,17.8525 v -10.4957 h 17.7544 z m -17.7544,-40.2172 v -14.3213 q -1.8637,-9.711 -8.9263,-16.7735 -9.9071,-10.0053 -23.0513,-10.0053 -13.2423,0 -22.9533,9.8091 -9.711,9.8091 -9.711,24.2285 0,14.3212 9.711,24.0322 9.711,9.711 22.9533,9.711 13.1442,0 23.0513,-9.9072 7.0626,-7.0625 8.9263,-16.7735 z"
           id="path1161"
           style="fill:#ffcc30;fill-opacity:1;stroke-width:1.04035" />
        <path
           d="m 4412.0245,-1833.6844 16.8716,6.1797 q -5.0026,6.7683 -7.9453,9.8091 -14.9098,15.0079 -36.3917,15.0079 -21.2857,0 -36.0974,-14.7136 -14.7137,-14.8117 -14.7137,-35.0184 0,-20.2067 14.7137,-34.9204 14.8117,-14.7136 36.0974,-14.7136 21.4819,0 35.9993,14.5175 3.3351,3.335 8.3377,10.1033 l -16.8716,6.2778 q -3.5313,-4.4141 -4.8064,-5.7873 -9.5149,-9.4168 -22.659,-9.4168 -13.1442,0 -22.8552,9.8091 -9.711,9.711 -9.711,24.1304 0,14.3212 9.711,24.1303 9.711,9.711 22.8552,9.711 13.1441,0 23.0513,-9.9072 0.8828,-0.8828 4.4141,-5.1988 z"
           id="path1163"
           style="fill:#ffcc30;fill-opacity:1;stroke-width:1.04035" />
      </g>
    </g>
  </g>
</svg>
